<?xml version="1.0" standalone="no"?>
<!DOCTYPE svg PUBLIC "-//W3C//DTD SVG 1.1//EN" "http://www.w3.org/Graphics/SVG/1.1/DTD/svg11.dtd" >
<svg xmlns="http://www.w3.org/2000/svg" xmlns:xlink="http://www.w3.org/1999/xlink" version="1.1">
<metadata></metadata>
<defs>
<font id="babaproregular" horiz-adv-x="1093" >
<font-face units-per-em="2048" ascent="1638" descent="-410" />
<missing-glyph horiz-adv-x="512" />
<glyph horiz-adv-x="0" />
<glyph unicode="&#xd;" horiz-adv-x="512" />
<glyph unicode=" "  horiz-adv-x="512" />
<glyph unicode="&#x09;" horiz-adv-x="512" />
<glyph unicode="&#xa0;" horiz-adv-x="512" />
<glyph unicode="!" horiz-adv-x="827" d="M33 1393h303v2l-92 -867h-119l-92 867v-2zM49 41v246h270v-246h-270z" />
<glyph unicode="&#x22;" horiz-adv-x="1251" d="M35 821l33 572h211v-174l-140 -398h-104zM518 821l33 572h211v-174l-139 -398h-105z" />
<glyph unicode="#" horiz-adv-x="1753" d="M33 348v180h194l66 385h-189v181h220l51 299h207l-52 -299h361l51 299h207l-51 -299h164v-181h-195l-66 -385h189v-180h-219l-53 -307h-207l53 307h-361l-53 -307h-207l54 307h-164zM434 528h361l65 385h-360z" />
<glyph unicode="$" horiz-adv-x="1579" d="M47 211l117 172q60 -46 147 -92q85 -47 211 -70v406q-142 39 -213 73q-78 34 -129 82t-74 107q-24 59 -24 139v4q0 76 27 137q28 61 77 107q57 50 127 76q77 30 199 45v114h152v-118q129 -17 225 -58q103 -42 141 -71l-100 -174q-59 37 -107 59q-71 36 -170 59v-391 q254 -71 348 -162q97 -97 97 -245v-4q0 -73 -29 -136q-28 -64 -78 -108q-55 -49 -127 -78q-76 -30 -200 -45v-199h-152v203q-161 21 -279 70q-123 49 -186 98zM319 1047q0 -66 37 -109q38 -44 166 -90v375q-115 -15 -160 -60q-43 -43 -43 -112v-4zM653 213q207 30 207 176v4 q0 73 -39 115q-41 44 -168 90v-385z" />
<glyph unicode="%" horiz-adv-x="2039" d="M33 1079v4q0 64 22 125q20 56 64 103q36 42 100 71q62 27 133 27q72 0 131 -27q64 -30 101 -69q42 -45 63 -103q21 -56 21 -123v-4q0 -61 -23 -125q-20 -56 -63 -102q-37 -42 -101 -72q-59 -26 -133 -26q-75 0 -131 26q-61 28 -100 70q-45 48 -64 102q-20 53 -20 123z M186 1083q0 -88 45 -153q47 -68 121 -68q80 0 121 68q41 65 41 149v4q0 89 -45 154q-47 68 -121 68q-80 0 -121 -66q-41 -65 -41 -152v-4zM217 41l987 1352h160l-987 -1352h-160zM913 346v4q0 61 23 125q21 58 63 103q36 41 101 71q62 27 133 27q73 0 131 -27 q63 -29 100 -69q44 -47 64 -103q20 -53 20 -123v-4q0 -64 -22 -125q-19 -54 -64 -102q-38 -43 -100 -72q-59 -26 -133 -26q-75 0 -131 26q-63 29 -101 70q-43 46 -63 102q-21 55 -21 123zM1067 350q0 -88 45 -153q47 -68 121 -68q80 0 121 68q41 65 41 149v4q0 89 -45 154 q-46 67 -121 67q-80 0 -121 -65t-41 -152v-4z" />
<glyph unicode="&#x26;" horiz-adv-x="1738" d="M33 393v4q0 120 65 209q67 88 238 166q-86 118 -105 178q-20 59 -20 127v4q0 62 25 123q22 54 75 107q51 48 127 75q79 31 176 31q90 0 158 -26q66 -23 117 -70q50 -44 74 -100q24 -59 24 -123v-4q0 -64 -18 -113q-16 -47 -56 -90q-29 -37 -86 -74q-53 -33 -178 -82 l262 -262q55 85 90 150q51 92 56 102l174 -96q-24 -46 -66 -111q-57 -89 -123 -178l201 -201l-172 -121l-166 170q-108 -87 -203 -125q-98 -43 -219 -43q-99 0 -182 27q-81 26 -143 78q-62 50 -92 117q-33 65 -33 151zM289 406q0 -99 67 -154t164 -55q55 0 113 22 q60 25 149 96l-325 330q-95 -51 -131 -108q-37 -58 -37 -127v-4zM438 1063q0 -53 23 -107q20 -39 84 -116q115 43 172 94t57 141v4q0 83 -49 129q-48 45 -117 45q-76 0 -121 -51q-49 -49 -49 -135v-4z" />
<glyph unicode="'" horiz-adv-x="772" d="M35 821l33 572h215v-174l-140 -398h-108z" />
<glyph unicode="(" horiz-adv-x="1150" d="M33 588q0 282 135 485q137 205 393 342l96 -145q-71 -50 -149 -125q-79 -79 -127 -162q-51 -83 -76 -182q-24 -99 -24 -213t24 -213q25 -99 76 -182q48 -83 127 -162q78 -75 149 -125l-96 -146q-256 137 -393 342q-135 202 -135 486z" />
<glyph unicode=")" horiz-adv-x="1150" d="M45 -94q74 52 150 125q79 79 127 162q49 80 75 182q25 103 25 213t-25 213q-26 102 -75 182q-48 83 -127 162q-76 73 -150 125l96 145q258 -138 394 -342q135 -203 135 -485q0 -284 -135 -486q-136 -204 -394 -342z" />
<glyph unicode="*" horiz-adv-x="1097" d="M47 983l281 117l-281 117l43 73l232 -176l-37 283h94l-37 -283l231 176l43 -73l-280 -117l280 -117l-43 -74l-231 176l37 -282h-94l37 282l-232 -176z" />
<glyph unicode="+" horiz-adv-x="1495" d="M33 621v200h370v369h230v-369h371v-200h-371v-369h-230v369h-370z" />
<glyph unicode="," horiz-adv-x="860" d="M37 -240q212 21 188 281h-123v246h271v-236q0 -184 -88 -260q-85 -79 -238 -82z" />
<glyph unicode="-" d="M33 526v217h569v-217h-569z" />
<glyph unicode="." horiz-adv-x="794" d="M33 41v246h270v-246h-270z" />
<glyph unicode="/" horiz-adv-x="1593" d="M51 -221l869 1814h192l-868 -1814h-193z" />
<glyph unicode="0" horiz-adv-x="1736" d="M33 713v4q0 149 43 274q46 132 123 221q81 96 192 150q110 55 250 55q135 0 250 -53q110 -55 190 -147q79 -98 121 -222q43 -125 43 -274v-4q0 -150 -43 -275q-46 -132 -123 -221q-79 -94 -192 -149q-112 -56 -250 -56q-135 0 -252 54q-112 56 -188 147q-78 92 -121 221 q-43 125 -43 275zM295 717q0 -105 24 -197q25 -93 70 -158q45 -66 111 -104q62 -39 141 -39q77 0 141 37q62 36 109 104q45 65 70 158q22 93 22 195v4q0 102 -25 194q-25 95 -71 158q-49 71 -111 107q-61 38 -139 38q-79 0 -141 -36q-61 -36 -109 -105q-43 -67 -68 -158 q-24 -89 -24 -194v-4z" />
<glyph unicode="1" horiz-adv-x="1081" d="M41 1290l373 113h182v-1362h-250v1133l-260 -64z" />
<glyph unicode="2" horiz-adv-x="1523" d="M33 41v186l463 379q51 42 116 103q40 35 82 88q36 56 47 90q17 49 17 98q0 115 -64 170q-63 57 -159 57q-94 0 -162 -51q-63 -46 -135 -131l-168 135q25 36 75 86q55 55 111 88q64 39 133 56q71 18 166 18q104 0 195 -31q88 -31 145 -82q61 -55 90 -126q33 -67 33 -162 v-4q0 -82 -21 -146q-19 -60 -65 -121q-34 -49 -113 -118q-54 -50 -162 -136l-333 -256h708v-190h-999z" />
<glyph unicode="3" horiz-adv-x="1521" d="M45 219l166 160q65 -72 145 -115q86 -47 203 -47q100 0 166 57q68 56 68 158v4q0 112 -86 168q-85 55 -226 55h-108l-37 146l399 399h-624v189h907v-176l-414 -396q146 -23 215 -49q67 -25 115 -67q52 -46 78 -105q28 -64 28 -151v-5q0 -97 -32 -168q-29 -74 -93 -135 q-60 -57 -153 -92q-88 -33 -207 -33q-187 0 -319 66q-134 69 -191 137z" />
<glyph unicode="4" horiz-adv-x="1703" d="M35 520l762 883h225v-879h192v-174h-192v-309h-240v309h-708zM289 524h493v578z" />
<glyph unicode="5" horiz-adv-x="1527" d="M45 195l143 172q72 -62 152 -103q85 -43 188 -43q117 0 195 60q76 61 76 180v4q0 115 -82 176q-83 59 -203 59q-64 0 -133 -16q-50 -12 -105 -35l-151 103l37 641h821v-195h-608l-23 -338l123 27q43 6 100 6q100 0 189 -25q93 -29 149 -77q64 -49 99 -127q35 -81 35 -189 v-4q0 -102 -35 -186q-39 -86 -101 -142q-60 -57 -161 -94q-95 -33 -218 -33q-167 0 -294 56q-128 58 -193 123z" />
<glyph unicode="6" horiz-adv-x="1593" d="M33 672v4q0 162 37 295q34 133 108 233q67 94 184 156q111 57 269 57q66 0 131 -10q51 -7 110 -29q47 -19 99 -49q39 -21 61 -39l-125 -182q-9 7 -49 35q-39 24 -72 37q-39 16 -77 24q-36 8 -88 8q-71 0 -129 -28q-50 -24 -97 -78q-39 -47 -63 -119q-21 -68 -39 -219 q106 70 168 96q65 27 168 27q98 0 190 -29q86 -26 152 -80q61 -56 96 -129q35 -78 35 -178v-4q0 -103 -39 -182q-37 -83 -105 -144q-63 -58 -163 -94q-96 -35 -209 -35q-139 0 -232 37q-92 37 -159 105q-76 76 -119 192t-43 322zM293 459q0 -113 78 -185q75 -69 202 -69 q129 0 201 69q76 67 76 183v4q0 113 -78 182q-77 68 -203 68t-200 -68q-76 -67 -76 -180v-4z" />
<glyph unicode="7" horiz-adv-x="1495" d="M33 1202v191h971v-185l-629 -1167h-279l641 1161h-704z" />
<glyph unicode="8" horiz-adv-x="1568" d="M33 393v4q0 119 51 187q54 73 231 153q-145 90 -190 154q-43 64 -43 166v4q0 66 31 133q28 58 94 111q56 48 149 79q92 29 199 29q104 0 199 -29q89 -30 151 -77q65 -55 92 -113q31 -64 31 -133v-4q0 -102 -43 -166q-48 -68 -186 -150q172 -93 225 -157q53 -68 53 -178 v-5q0 -88 -37 -155q-38 -71 -106 -119q-69 -53 -166 -80q-99 -27 -213 -27q-107 0 -213 29q-97 27 -166 80q-67 47 -106 117q-37 64 -37 147zM276 418q0 -95 78 -158q76 -61 201 -61q124 0 201 59q78 63 78 160v4q0 109 -82 164q-80 53 -197 53t-197 -53q-82 -55 -82 -164 v-4zM319 1024q0 -95 66 -158q68 -59 170 -59t170 59q66 60 66 156v4q0 87 -64 148t-172 61q-107 0 -172 -59q-64 -61 -64 -148v-4z" />
<glyph unicode="9" horiz-adv-x="1593" d="M33 952v4q0 99 37 183q34 81 102 143q63 63 164 98q93 37 213 37q75 0 127 -8q37 -6 102 -27q41 -16 88 -45q33 -22 74 -63q42 -42 68 -84q32 -50 49 -107q21 -61 33 -139q12 -80 12 -182v-4q0 -173 -39 -303q-42 -142 -113 -234q-76 -98 -184 -149q-112 -56 -260 -56 q-155 0 -260 45q-103 44 -164 93l125 180q64 -54 135 -82q79 -31 172 -31q147 0 223 101q82 106 109 348q-115 -94 -174 -115q-70 -25 -158 -25q-112 0 -203 31q-91 30 -151 84q-64 55 -94 131q-33 73 -33 176zM285 967q0 -119 77 -187q75 -69 203 -69q129 0 201 69 q76 70 76 185v4q0 116 -78 188t-205 72q-128 0 -201 -70t-73 -188v-4z" />
<glyph unicode=":" horiz-adv-x="794" d="M33 41v246h270v-246h-270zM33 811v246h270v-246h-270z" />
<glyph unicode=";" horiz-adv-x="860" d="M37 -240q212 21 188 281h-123v246h271v-236q0 -184 -88 -260q-85 -79 -238 -82zM102 811v246h271v-246h-271z" />
<glyph unicode="&#x3c;" horiz-adv-x="1454" d="M33 608v226l930 405v-201l-766 -315l766 -315v-205z" />
<glyph unicode="=" horiz-adv-x="1433" d="M33 354v201h909v-201h-909zM33 887v200h909v-200h-909z" />
<glyph unicode="&#x3e;" horiz-adv-x="1454" d="M33 203v200l766 316l-766 315v205l930 -405v-226z" />
<glyph unicode="?" horiz-adv-x="1445" d="M43 1231q62 65 174 121q118 59 281 59q108 0 194 -27q90 -28 148 -75q55 -46 92 -119q31 -73 31 -162v-4q0 -84 -29 -147q-27 -61 -76 -107q-50 -44 -121 -74q-81 -31 -172 -47l-22 -121h-160l-27 195l70 70q95 3 190 59t95 164v4q0 92 -62 139q-59 47 -157 47 q-92 0 -170 -37q-83 -39 -138 -94zM322 41v246h270v-246h-270z" />
<glyph unicode="@" horiz-adv-x="2252" d="M33 561q0 174 65 328q68 157 183 272t274 187q156 69 344 69q185 0 342 -65q160 -68 275 -174q114 -106 180 -246q65 -139 65 -285q0 -117 -28 -209q-30 -88 -80 -147q-48 -56 -119 -88q-76 -29 -150 -29q-121 0 -188 37q-70 35 -123 96q-63 -58 -139 -98 q-72 -35 -166 -35q-72 0 -137 27q-64 24 -111 71q-44 44 -71 109q-25 67 -25 147q0 98 35 185q37 92 94 149q55 61 135 103q76 36 164 36q103 0 162 -36q65 -41 135 -142l31 144l182 -29l-88 -506q-6 -18 -6 -39q-2 -14 -2 -35q0 -76 49 -122q51 -48 131 -48q58 0 115 31 q52 30 92 90q39 56 61 144q23 94 23 194q0 149 -66 293q-65 142 -178 246q-106 104 -264 170q-152 61 -330 61q-180 0 -332 -67q-147 -62 -266 -181q-115 -118 -178 -274q-66 -160 -66 -334q0 -176 66 -336q65 -157 178 -270q120 -117 272 -180q157 -66 342 -66 q156 0 275 35q121 38 219 94v-2q-75 -44 -209 -86q-131 -41 -285 -41q-192 0 -354 70q-163 68 -280 184q-120 120 -183 270q-65 154 -65 328zM616 543q0 -117 64 -178q65 -62 160 -62q52 0 104 25q51 28 86 71q42 48 62 107q22 64 22 133q0 110 -63 170q-63 63 -158 63 q-55 0 -105 -24q-48 -23 -88 -70q-40 -43 -61 -104q-23 -67 -23 -131z" />
<glyph unicode="A" horiz-adv-x="1941" d="M47 33l580 1358h254l577 -1358h-258l-450 1106l-373 -912h342v-194h-672z" />
<glyph unicode="B" horiz-adv-x="1601" d="M33 41v1350h635q237 0 356 -119q86 -83 86 -213q0 -214 -238 -344q238 -127 238 -344q0 -128 -86 -211q-119 -119 -356 -119h-635zM279 236h342q237 6 237 186q0 109 -80 168q-45 39 -112 39q-22 0 -72 -11l-315 -88v-294zM279 721q98 28 192.5 54t136.5 38l49 14 q77 17 142 50q59 30 59 127q0 186 -237 192h-342v-475z" />
<glyph unicode="C" horiz-adv-x="1726" d="M33 715q0 278 190 477q192 201 502 201q191 0 313 -58q126 -57 185 -116l-148 -170q-136 145 -352 145q-185 0 -309 -139q-125 -137 -125 -336q0 -200 123 -338q120 -141 311 -141q249 0 367 151l141 -145q-66 -75 -197 -142q-123 -63 -321 -63q-296 0 -490 197 q-190 196 -190 477z" />
<glyph unicode="D" horiz-adv-x="1785" d="M33 41v1352h528q330 0 531 -195q202 -196 202 -479q0 -285 -202 -481q-200 -197 -531 -197h-528zM287 244h274q416 0 463 465q0 425 -461 481h-276v-946z" />
<glyph unicode="E" horiz-adv-x="1544" d="M33 41v774h602v-199h-383v-376h801v-199h-1020zM33 1192v199h1020v-199h-1020z" />
<glyph unicode="F" horiz-adv-x="1550" d="M33 43v758h674v-205h-422v-553h-252zM33 1186v205h1026v-205h-1026z" />
<glyph unicode="G" horiz-adv-x="1826" d="M33 690q0 286 196 488q198 204 512 213h594v-207h-594q-179 0 -311 -144q-129 -141 -129 -346q0 -219 131 -356q130 -139 332 -139q185 0 328 102v268h-318v191h561v-561q-202 -205 -581 -205q-324 0 -523 199q-198 198 -198 497z" />
<glyph unicode="H" horiz-adv-x="1671" d="M33 43v1348h252v-652l641 203v449h254v-1348h-254v641l-641 -203v-438h-252z" />
<glyph unicode="I" horiz-adv-x="778" d="M33 41v1352h254v-1352h-254z" />
<glyph unicode="J" horiz-adv-x="1439" d="M45 178l154 172q103 -133 266 -133q209 0 227 281v669h-196v228h462v-910q0 -237 -122 -356q-136 -127 -363 -127q-287 0 -428 176z" />
<glyph unicode="K" horiz-adv-x="1607" d="M33 41v1352h254v-615l538 615h283l-596 -676l596 -676h-283l-538 614v-614h-254z" />
<glyph unicode="L" horiz-adv-x="1495" d="M33 39v1354h254v-1149h717v-205h-971z" />
<glyph unicode="M" horiz-adv-x="1898" d="M33 39v1354h297l391 -596l389 596h297v-1354h-252v1005l-313 -475v-530h-244v518l-317 481v-999h-248z" />
<glyph unicode="N" horiz-adv-x="1738" d="M33 39v1354h248l714 -940v940h252v-1354h-227l-737 969v-969h-250z" />
<glyph unicode="O" horiz-adv-x="1943" d="M33 713v4q0 143 51 262q53 121 147 215q89 89 224 147q133 56 288 56q156 0 289 -56q137 -59 223 -145q92 -89 146 -213q51 -127 51 -262v-4q0 -136 -53 -260q-54 -126 -146 -215q-90 -93 -225 -150q-133 -53 -289 -53q-153 0 -286 53q-131 55 -224 148q-92 89 -145 213 q-51 119 -51 260zM291 717q0 -97 35 -187q32 -83 96 -153q61 -64 143 -101q76 -36 178 -36q106 0 181 34q88 41 141 103q62 68 94 151q33 82 33 185v4q0 103 -33 188q-36 89 -96 152t-143 102q-81 37 -181 37t-178 -37q-81 -34 -141 -100q-57 -59 -94 -152q-35 -87 -35 -186 v-4z" />
<glyph unicode="P" horiz-adv-x="1599" d="M33 39v1354h555q486 0 520 -457q0 -226 -158 -348q-162 -119 -379 -119l-131 199h127q265 0 283 258q0 258 -289 264h-274v-1151h-254z" />
<glyph unicode="Q" horiz-adv-x="1968" d="M33 723v4q0 140 53 264q51 123 147 219q98 98 230 152q131 55 293 55t293 -55q127 -54 227 -150q95 -92 147 -217q52 -122 52 -264v-4q0 -99 -31 -201q-24 -83 -111 -215l142 -118l-150 -166l-149 137q-108 -70 -205 -98q-113 -29 -219 -29q-159 0 -293 55 q-133 56 -228 148q-95 95 -147 217q-51 122 -51 266zM297 727q0 -107 35 -190q35 -90 96 -154q64 -67 145 -104t183 -37q104 0 256 67l-250 211l149 168l240 -217q59 127 59 252v4q0 108 -34 188q-36 92 -97 156t-145 105q-82 36 -182 36q-104 0 -183 -36t-143 -103 q-58 -64 -94 -153q-35 -83 -35 -189v-4z" />
<glyph unicode="R" horiz-adv-x="1669" d="M33 41v1352h624q265 0 400 -138q110 -110 110 -294q0 -319 -333 -424l337 -496h-284l-447 655h197q260 0 272 242q0 249 -278 252h-344v-1149h-254z" />
<glyph unicode="S" horiz-adv-x="1564" d="M45 231l137 166q76 -62 189 -114q106 -50 231 -50q104 0 168 46q66 43 66 129v4q0 42 -17 75q-15 35 -51 58t-94 45q-112 34 -148 43q-86 19 -190 57q-83 30 -139 74q-58 46 -84 104q-29 59 -29 156v4q0 84 31 154q36 74 92 121q59 50 147 81q92 29 193 29q156 0 278 -45 q132 -49 199 -102l-121 -176q-62 45 -172 92q-88 39 -188 39q-99 0 -156 -45t-57 -119v-4q0 -47 18 -82q16 -34 60 -60q39 -23 100 -41q68 -23 154 -43q112 -32 186 -63q82 -35 133 -78q50 -44 78 -102q24 -58 24 -142v-4q0 -94 -34 -166q-33 -71 -97 -122q-65 -53 -153 -80 q-98 -29 -203 -29q-160 0 -309 55q-156 54 -242 135z" />
<glyph unicode="T" horiz-adv-x="1650" d="M33 1184v209h1126v-209h-436v-1143h-254v1143h-436z" />
<glyph unicode="U" horiz-adv-x="1712" d="M33 614v779h254v-770q0 -195 92 -295q91 -101 248 -101q153 0 247 97q93 101 93 288v781h254v-768q0 -155 -41 -267q-39 -110 -117 -188q-79 -76 -189 -113q-107 -39 -251 -39q-282 0 -435 150q-155 149 -155 446z" />
<glyph unicode="V" horiz-adv-x="1863" d="M47 1393h279l393 -1061l393 1061h270l-546 -1362h-242z" />
<glyph unicode="W" horiz-adv-x="2381" d="M47 1393h268l390 -1053l141 381l-271 672h269l391 -1053l389 1053h277l-543 -1350h-240l-145 360l-144 -360h-239z" />
<glyph unicode="X" horiz-adv-x="1769" d="M63 41l472 688l-451 664h285l315 -486l317 486h275l-451 -660l471 -692h-284l-336 512l-338 -512h-275z" />
<glyph unicode="Y" horiz-adv-x="1818" d="M57 1393h289l356 -600l363 600h278l-516 -807v-545h-254v539z" />
<glyph unicode="Z" horiz-adv-x="1656" d="M33 41v180l839 977h-839v195h1132v-181l-839 -976h839v-195h-1132z" />
<glyph unicode="[" horiz-adv-x="1124" d="M33 -225v1618h600v-162h-363v-1294h363v-162h-600z" />
<glyph unicode="\" horiz-adv-x="1593" d="M51 1593h193l868 -1814h-192z" />
<glyph unicode="]" horiz-adv-x="1124" d="M33 -63h362v1294h-362v162h600v-1618h-600v162z" />
<glyph unicode="^" horiz-adv-x="1212" d="M63 1051l244 342h189l243 -342h-141l-199 256l-198 -256h-138z" />
<glyph unicode="_" horiz-adv-x="1699" d="M33 -131h1175v-156h-1175v156z" />
<glyph unicode="`" horiz-adv-x="899" d="M57 1450l191 84l176 -274h-164z" />
<glyph unicode="a" horiz-adv-x="1941" d="M47 33l580 1358h254l577 -1358h-258l-450 1106l-373 -912h342v-194h-672z" />
<glyph unicode="b" horiz-adv-x="1601" d="M33 41v1350h635q237 0 356 -119q86 -83 86 -213q0 -214 -238 -344q238 -127 238 -344q0 -128 -86 -211q-119 -119 -356 -119h-635zM279 236h342q237 6 237 186q0 109 -80 168q-45 39 -112 39q-22 0 -72 -11l-315 -88v-294zM279 721q98 28 192.5 54t136.5 38l49 14 q77 17 142 50q59 30 59 127q0 186 -237 192h-342v-475z" />
<glyph unicode="c" horiz-adv-x="1726" d="M33 715q0 278 190 477q192 201 502 201q191 0 313 -58q126 -57 185 -116l-148 -170q-136 145 -352 145q-185 0 -309 -139q-125 -137 -125 -336q0 -200 123 -338q120 -141 311 -141q249 0 367 151l141 -145q-66 -75 -197 -142q-123 -63 -321 -63q-296 0 -490 197 q-190 196 -190 477z" />
<glyph unicode="d" horiz-adv-x="1785" d="M33 41v1352h528q330 0 531 -195q202 -196 202 -479q0 -285 -202 -481q-200 -197 -531 -197h-528zM287 244h274q416 0 463 465q0 425 -461 481h-276v-946z" />
<glyph unicode="e" horiz-adv-x="1544" d="M33 41v774h602v-199h-383v-376h801v-199h-1020zM33 1192v199h1020v-199h-1020z" />
<glyph unicode="f" horiz-adv-x="1550" d="M33 43v758h674v-205h-422v-553h-252zM33 1186v205h1026v-205h-1026z" />
<glyph unicode="g" horiz-adv-x="1826" d="M33 690q0 286 196 488q198 204 512 213h594v-207h-594q-179 0 -311 -144q-129 -141 -129 -346q0 -219 131 -356q130 -139 332 -139q185 0 328 102v268h-318v191h561v-561q-202 -205 -581 -205q-324 0 -523 199q-198 198 -198 497z" />
<glyph unicode="h" horiz-adv-x="1671" d="M33 43v1348h252v-652l641 203v449h254v-1348h-254v641l-641 -203v-438h-252z" />
<glyph unicode="i" horiz-adv-x="778" d="M33 41v1352h254v-1352h-254z" />
<glyph unicode="j" horiz-adv-x="1439" d="M45 178l154 172q103 -133 266 -133q209 0 227 281v669h-196v228h462v-910q0 -237 -122 -356q-136 -127 -363 -127q-287 0 -428 176z" />
<glyph unicode="k" horiz-adv-x="1607" d="M33 41v1352h254v-615l538 615h283l-596 -676l596 -676h-283l-538 614v-614h-254z" />
<glyph unicode="l" horiz-adv-x="1495" d="M33 39v1354h254v-1149h717v-205h-971z" />
<glyph unicode="m" horiz-adv-x="1898" d="M33 39v1354h297l391 -596l389 596h297v-1354h-252v1005l-313 -475v-530h-244v518l-317 481v-999h-248z" />
<glyph unicode="n" horiz-adv-x="1738" d="M33 39v1354h248l714 -940v940h252v-1354h-227l-737 969v-969h-250z" />
<glyph unicode="o" horiz-adv-x="1943" d="M33 713v4q0 143 51 262q53 121 147 215q89 89 224 147q133 56 288 56q156 0 289 -56q137 -59 223 -145q92 -89 146 -213q51 -127 51 -262v-4q0 -136 -53 -260q-54 -126 -146 -215q-90 -93 -225 -150q-133 -53 -289 -53q-153 0 -286 53q-131 55 -224 148q-92 89 -145 213 q-51 119 -51 260zM291 717q0 -97 35 -187q32 -83 96 -153q61 -64 143 -101q76 -36 178 -36q106 0 181 34q88 41 141 103q62 68 94 151q33 82 33 185v4q0 103 -33 188q-36 89 -96 152t-143 102q-81 37 -181 37t-178 -37q-81 -34 -141 -100q-57 -59 -94 -152q-35 -87 -35 -186 v-4z" />
<glyph unicode="p" horiz-adv-x="1599" d="M33 39v1354h555q486 0 520 -457q0 -226 -158 -348q-162 -119 -379 -119l-131 199h127q265 0 283 258q0 258 -289 264h-274v-1151h-254z" />
<glyph unicode="q" horiz-adv-x="1968" d="M33 723v4q0 140 53 264q51 123 147 219q98 98 230 152q131 55 293 55t293 -55q127 -54 227 -150q95 -92 147 -217q52 -122 52 -264v-4q0 -99 -31 -201q-24 -83 -111 -215l142 -118l-150 -166l-149 137q-108 -70 -205 -98q-113 -29 -219 -29q-159 0 -293 55 q-133 56 -228 148q-95 95 -147 217q-51 122 -51 266zM297 727q0 -107 35 -190q35 -90 96 -154q64 -67 145 -104t183 -37q104 0 256 67l-250 211l149 168l240 -217q59 127 59 252v4q0 108 -34 188q-36 92 -97 156t-145 105q-82 36 -182 36q-104 0 -183 -36t-143 -103 q-58 -64 -94 -153q-35 -83 -35 -189v-4z" />
<glyph unicode="r" horiz-adv-x="1669" d="M33 41v1352h624q265 0 400 -138q110 -110 110 -294q0 -319 -333 -424l337 -496h-284l-447 655h197q260 0 272 242q0 249 -278 252h-344v-1149h-254z" />
<glyph unicode="s" horiz-adv-x="1564" d="M45 231l137 166q76 -62 189 -114q106 -50 231 -50q104 0 168 46q66 43 66 129v4q0 42 -17 75q-15 35 -51 58t-94 45q-112 34 -148 43q-86 19 -190 57q-83 30 -139 74q-58 46 -84 104q-29 59 -29 156v4q0 84 31 154q36 74 92 121q59 50 147 81q92 29 193 29q156 0 278 -45 q132 -49 199 -102l-121 -176q-62 45 -172 92q-88 39 -188 39q-99 0 -156 -45t-57 -119v-4q0 -47 18 -82q16 -34 60 -60q39 -23 100 -41q68 -23 154 -43q112 -32 186 -63q82 -35 133 -78q50 -44 78 -102q24 -58 24 -142v-4q0 -94 -34 -166q-33 -71 -97 -122q-65 -53 -153 -80 q-98 -29 -203 -29q-160 0 -309 55q-156 54 -242 135z" />
<glyph unicode="t" horiz-adv-x="1650" d="M33 1184v209h1126v-209h-436v-1143h-254v1143h-436z" />
<glyph unicode="u" horiz-adv-x="1712" d="M33 614v779h254v-770q0 -195 92 -295q91 -101 248 -101q153 0 247 97q93 101 93 288v781h254v-768q0 -155 -41 -267q-39 -110 -117 -188q-79 -76 -189 -113q-107 -39 -251 -39q-282 0 -435 150q-155 149 -155 446z" />
<glyph unicode="v" horiz-adv-x="1863" d="M47 1393h279l393 -1061l393 1061h270l-546 -1362h-242z" />
<glyph unicode="w" horiz-adv-x="2381" d="M47 1393h268l390 -1053l141 381l-271 672h269l391 -1053l389 1053h277l-543 -1350h-240l-145 360l-144 -360h-239z" />
<glyph unicode="x" horiz-adv-x="1769" d="M63 41l472 688l-451 664h285l315 -486l317 486h275l-451 -660l471 -692h-284l-336 512l-338 -512h-275z" />
<glyph unicode="y" horiz-adv-x="1818" d="M57 1393h289l356 -600l363 600h278l-516 -807v-545h-254v539z" />
<glyph unicode="z" horiz-adv-x="1656" d="M33 41v180l839 977h-839v195h1132v-181l-839 -976h839v-195h-1132z" />
<glyph unicode="{" horiz-adv-x="1261" d="M33 510v156h22q129 0 193 55q63 51 63 197q0 20 -2 32q0 29 -2 41q0 27 -2 39v29q0 66 19 125q21 55 69 100q43 40 137 80q82 36 203 55l35 -131q-31 -8 -100 -39q-48 -21 -86 -59q-34 -37 -43 -80q-11 -53 -11 -96q0 -18 4 -76q3 -47 3 -76q0 -95 -46 -147 q-44 -53 -264 -127q220 -74 264 -127q46 -52 46 -148q0 -29 -3 -75q-4 -58 -4 -76q0 -43 11 -96q9 -43 43 -80q40 -40 86 -60q69 -31 100 -39l-35 -131q-118 19 -203 56q-96 41 -137 79q-48 45 -69 101q-19 59 -19 125v28q2 12 2 39q2 12 2 41q2 12 2 33q0 146 -63 197 q-64 55 -193 55h-22z" />
<glyph unicode="|" horiz-adv-x="708" d="M33 -221v1814h184v-1814h-184z" />
<glyph unicode="}" horiz-adv-x="1261" d="M41 -113q31 8 100 39q46 20 86 60q34 37 43 80q11 53 11 96q0 47 -2 76q-1 11 -2 27.5t-2 27.5t-1 20q0 97 45 148q44 52 265 127q-221 75 -265 127q-45 51 -45 147q0 9 1 20.5t2 28t2 27.5q2 29 2 76q0 43 -11 96q-9 43 -43 80q-38 38 -86 59q-69 31 -100 39l35 131 q121 -19 203 -55q94 -40 137 -80q48 -45 69 -100q19 -59 19 -125v-29q-2 -12 -2 -39q-2 -12 -2 -41q-2 -12 -2 -32q0 -146 63 -197q64 -55 193 -55h22v-156h-22q-129 0 -193 -55q-63 -51 -63 -197q0 -21 2 -33q0 -29 2 -41q0 -27 2 -39v-28q0 -66 -19 -125q-21 -56 -69 -101 q-41 -38 -137 -79q-85 -37 -203 -56z" />
<glyph unicode="~" horiz-adv-x="1290" d="M41 539q1 3 25 65q21 51 45 80q28 36 61 49q36 19 82 19q39 0 86 -13q48 -13 80 -26q49 -18 74 -29q34 -12 67 -12q59 0 88 33q33 37 43 61l111 -33q-20 -77 -70 -145t-143 -68q-42 0 -86 12q-40 11 -80 27q-47 18 -76 29q-35 12 -65 12q-59 0 -88 -33q-33 -37 -43 -61z " />
<glyph unicode="&#xa2;" horiz-adv-x="1462" d="M33 723v4q0 115 39 203q44 103 112 168q69 72 172 116q86 38 222 84h40l23 107h150l-33 -168q101 -38 143 -70q54 -39 66 -53l-136 -147l-32 28q-31 24 -88 52l-133 -668q110 14 170 47q48 24 92 63l127 -129q-42 -48 -146 -106q-105 -54 -268 -57l-33 -168h-149l37 188 q-107 40 -172 90q-66 53 -109 113q-46 63 -70 141q-24 77 -24 162zM272 727q0 -101 39 -178q40 -79 144 -143l131 669q-98 -9 -150 -37q-48 -26 -86 -73q-40 -50 -57 -107q-21 -58 -21 -127v-4z" />
<glyph unicode="&#xa3;" horiz-adv-x="1560" d="M33 41v133l155 51v363h-155v178h155v207q0 95 29 184q26 77 86 137q57 57 139 86q82 33 201 33q85 0 150 -18q59 -13 118 -47q58 -33 95 -70q40 -37 49 -51l-187 -150q-45 55 -94 88q-55 37 -127 37q-82 0 -139 -57q-30 -34 -43 -74q-19 -52 -19 -106v-199h467v-178h-467 v-357h623v-190h-1036z" />
<glyph unicode="&#xa4;" horiz-adv-x="1742" d="M33 485v125h160q-9 61 -9 74v29v4v35q0 18 6 79h-157v125h182q40 129 88 201q52 79 125 137q73 61 162 90q88 33 201 33q93 0 163 -18q60 -15 131 -51q61 -38 103 -80q29 -28 57 -62l-184 -139q-51 64 -113 107q-65 45 -164 45q-96 0 -172 -54q-72 -53 -145 -209h403 v-125h-421q-7 -65 -7 -73v-37v-4v-35q0 -7 7 -72h421v-125h-403q70 -162 147 -217q77 -53 183 -53q97 0 159 45q61 42 121 115l172 -127q-62 -87 -172 -158q-112 -74 -280 -74q-119 0 -207 33q-91 29 -168 90q-68 56 -123 140q-50 79 -88 206h-178z" />
<glyph unicode="&#xa5;" horiz-adv-x="1748" d="M61 1393h281l330 -555l332 555h270l-443 -676h334v-139h-377v-209h377v-140h-377v-188h-241v188h-377v140h377v209h-377v139h330z" />
<glyph unicode="&#xa8;" horiz-adv-x="1200" d="M33 1260v194h237v-194h-237zM471 1260v194h238v-194h-238z" />
<glyph unicode="&#xa9;" horiz-adv-x="1945" d="M33 713v4q0 139 53 266q54 122 150 223q96 96 227 154q129 57 282 57q154 0 283 -57q130 -56 223 -152q94 -94 150 -221q53 -127 53 -266v-4q0 -139 -53 -266q-55 -124 -150 -224q-94 -94 -227 -153q-131 -58 -283 -58q-151 0 -282 58q-132 57 -223 151q-94 94 -150 221 q-53 127 -53 267zM57 713q0 -143 54 -273q51 -126 145 -223q90 -93 217 -147q130 -54 268 -54q144 0 271 56q125 52 217 147t147 223q54 133 54 275v4q0 141 -54 274q-58 133 -145 222q-92 95 -217 147q-127 53 -269 53q-145 0 -270 -55q-124 -51 -217 -148 q-92 -95 -147 -223q-54 -133 -54 -274v-4zM379 723v4q0 75 27 139q24 64 75 115q49 52 119 82q76 31 158 31q107 0 174 -31q76 -39 88 -51l-66 -78q-31 27 -82 51q-52 27 -114 27q-50 0 -101 -23q-47 -21 -82 -59t-53 -90q-20 -50 -20 -111v-4q0 -59 18 -111q21 -53 55 -90 q32 -38 82 -59q51 -23 101 -23q68 0 121 29q45 25 79 55l68 -67q-24 -24 -96 -64q-68 -35 -178 -35q-79 0 -152 31q-66 25 -119 78q-46 46 -75 115q-27 64 -27 139z" />
<glyph unicode="&#xab;" horiz-adv-x="1486" d="M33 432v234l227 303l174 -84l-254 -334l254 -334l-174 -88zM590 432v234l227 303l174 -84l-254 -334l254 -334l-174 -88z" />
<glyph unicode="&#xad;" d="M33 526v217h569v-217h-569z" />
<glyph unicode="&#xae;" horiz-adv-x="1945" d="M33 713v4q0 139 53 266q54 122 150 223q96 96 227 154q129 57 282 57q154 0 283 -57q130 -56 223 -152q94 -94 150 -221q53 -127 53 -266v-4q0 -139 -53 -266q-55 -124 -150 -224q-94 -94 -227 -153q-131 -58 -283 -58q-151 0 -282 58q-132 57 -223 151q-94 94 -150 221 q-53 127 -53 267zM57 713q0 -143 54 -273q51 -126 145 -223q90 -93 217 -147q130 -54 268 -54q144 0 271 56q125 52 217 147t147 223q54 133 54 275v4q0 141 -54 274q-58 133 -145 222q-92 95 -217 147q-127 53 -269 53q-145 0 -270 -55q-124 -51 -217 -148 q-92 -95 -147 -223q-54 -133 -54 -274v-4zM469 385v707h319q148 0 222 -74q57 -57 57 -144v-4q0 -81 -39 -129q-39 -47 -156 -94l179 -262h-119l-139 209l-160 45h-51v-254h-113zM582 707h204q74 0 121 41q45 42 45 112v4q0 79 -49 119q-46 37 -121 37h-200v-313z" />
<glyph unicode="&#xaf;" horiz-adv-x="1200" d="M33 1270v133h676v-133h-676z" />
<glyph unicode="&#xb0;" horiz-adv-x="1171" d="M33 1098v4q0 56 24 112q23 53 70 97q43 43 104 67q58 27 125 27q66 0 125 -27q62 -24 105 -67q45 -43 69 -97q25 -58 25 -112v-4q0 -55 -25 -113q-23 -53 -69 -96q-44 -44 -105 -68q-56 -26 -125 -26t-125 26q-59 23 -104 68q-48 45 -70 96q-24 55 -24 113zM137 1098 q0 -97 64 -164q65 -68 155 -68q91 0 156 68q63 66 63 164v4q0 98 -63 164q-64 67 -156 67q-91 0 -155 -67t-64 -164v-4z" />
<glyph unicode="&#xb4;" horiz-adv-x="899" d="M57 1260l176 274l191 -84l-203 -190h-164z" />
<glyph unicode="&#xb6;" horiz-adv-x="1427" d="M33 948v4q0 105 37 183q38 81 106 137q61 53 168 90q102 31 223 31h369v-1352h-254v471h-80q-118 0 -231 29q-105 26 -183 86q-74 55 -114 135q-41 80 -41 186z" />
<glyph unicode="&#xb7;" horiz-adv-x="794" d="M33 512v246h270v-246h-270z" />
<glyph unicode="&#xb8;" horiz-adv-x="835" d="M51 -225l139 205h166l-114 -285z" />
<glyph unicode="&#xbb;" horiz-adv-x="1486" d="M51 213l254 334l-254 334l174 88l228 -303v-234l-228 -303zM608 213l254 334l-254 334l174 88l228 -303v-234l-228 -303z" />
<glyph unicode="&#xd6;" horiz-adv-x="1986" d="M33 713v4q0 141 53 268q56 127 152 223q97 97 231 152q132 57 297 57t297 -57q136 -57 229 -150q96 -92 150 -221q53 -127 53 -268v-4q0 -141 -53 -268q-57 -129 -152 -224t-231 -151q-134 -58 -297 -58t-297 58q-138 58 -229 149q-96 92 -150 221q-53 127 -53 269z M301 717q0 -100 35 -193q36 -93 98 -155q64 -67 148 -105q79 -39 184 -39q100 0 184 37q86 39 146 105q62 68 96 155q35 90 35 191v4q0 99 -35 192q-37 95 -98 156q-62 65 -148 104q-82 39 -184 39q-103 0 -184 -37q-87 -40 -146 -104q-62 -67 -96 -156q-35 -90 -35 -190v-4 zM426 1587v195h238v-195h-238zM864 1587v195h238v-195h-238z" />
<glyph unicode="&#xdc;" horiz-adv-x="1712" d="M33 614v779h254v-770q0 -195 92 -295q91 -101 248 -101q153 0 247 97q93 101 93 288v781h254v-768q0 -155 -41 -267q-39 -110 -117 -188q-79 -76 -189 -113q-107 -39 -251 -39q-282 0 -435 150q-155 149 -155 446zM289 1587v195h237v-195h-237zM727 1587v195h238v-195 h-238z" />
<glyph unicode="&#x2c6;" horiz-adv-x="1183" d="M68 1260l188 239h270l189 -239h-156l-170 141l-170 -141h-151z" />
<glyph unicode="&#x2dc;" horiz-adv-x="1290" d="M41 1278q1 3 25 65q21 51 45 80q29 37 61 50q34 18 82 18q42 0 86 -12q40 -11 80 -27q49 -18 74 -29q34 -12 67 -12q59 0 88 33q33 37 43 61l111 -32q-21 -79 -70 -146t-143 -67q-42 0 -86 12q-48 13 -80 26q-47 18 -76 29q-35 12 -65 12q-60 0 -88 -32q-32 -36 -43 -62z " />
<glyph unicode="&#x2000;" horiz-adv-x="891" />
<glyph unicode="&#x2001;" horiz-adv-x="1782" />
<glyph unicode="&#x2002;" horiz-adv-x="891" />
<glyph unicode="&#x2003;" horiz-adv-x="1782" />
<glyph unicode="&#x2004;" horiz-adv-x="594" />
<glyph unicode="&#x2005;" horiz-adv-x="445" />
<glyph unicode="&#x2006;" horiz-adv-x="297" />
<glyph unicode="&#x2007;" horiz-adv-x="297" />
<glyph unicode="&#x2008;" horiz-adv-x="222" />
<glyph unicode="&#x2009;" horiz-adv-x="356" />
<glyph unicode="&#x200a;" horiz-adv-x="99" />
<glyph unicode="&#x2010;" d="M33 526v217h569v-217h-569z" />
<glyph unicode="&#x2011;" d="M33 526v217h569v-217h-569z" />
<glyph unicode="&#x2012;" d="M33 526v217h569v-217h-569z" />
<glyph unicode="&#x2013;" horiz-adv-x="1339" d="M33 530v209h815v-209h-815z" />
<glyph unicode="&#x2014;" horiz-adv-x="2097" d="M33 530v209h1573v-209h-1573z" />
<glyph unicode="&#x2018;" horiz-adv-x="860" d="M33 825v236q0 181 88 260t237 82l11 -51q-213 -21 -189 -281h123v-246h-270z" />
<glyph unicode="&#x2019;" horiz-adv-x="860" d="M37 866q212 21 188 281h-123v246h271v-236q0 -184 -88 -260q-85 -79 -238 -82z" />
<glyph unicode="&#x201a;" horiz-adv-x="860" d="M37 -240q212 21 188 281h-123v246h271v-236q0 -184 -88 -260q-85 -79 -238 -82z" />
<glyph unicode="&#x201c;" horiz-adv-x="1380" d="M33 825v236q0 181 88 260t237 82l11 -51q-213 -21 -189 -281h123v-246h-270zM553 825v236q0 181 88 260t238 82l10 -51q-213 -21 -189 -281h123v-246h-270z" />
<glyph unicode="&#x201d;" horiz-adv-x="1380" d="M37 866q212 21 188 281h-123v246h271v-236q0 -184 -88 -260q-85 -79 -238 -82zM557 866q212 21 188 281h-122v246h270v-236q0 -184 -88 -260q-85 -79 -238 -82z" />
<glyph unicode="&#x201e;" horiz-adv-x="1380" d="M37 -240q212 21 188 281h-123v246h271v-236q0 -184 -88 -260q-85 -79 -238 -82zM557 -240q212 21 188 281h-122v246h270v-236q0 -184 -88 -260q-85 -79 -238 -82z" />
<glyph unicode="&#x2022;" horiz-adv-x="1073" d="M33 719v4q0 56 20 100q19 49 58 82q37 37 86 58q55 22 110 22q56 0 111 -22q49 -21 86 -58q34 -31 57 -82q21 -49 21 -100v-4q0 -51 -21 -101q-22 -49 -57 -81q-37 -37 -86 -58q-55 -22 -111 -22q-55 0 -110 22q-49 21 -86 58q-40 34 -58 81q-20 44 -20 101z" />
<glyph unicode="&#x202f;" horiz-adv-x="356" />
<glyph unicode="&#x2039;" horiz-adv-x="929" d="M33 432v234l227 303l174 -84l-254 -334l254 -334l-174 -88z" />
<glyph unicode="&#x203a;" horiz-adv-x="929" d="M51 213l254 334l-254 334l174 88l228 -303v-234l-228 -303z" />
<glyph unicode="&#x205f;" horiz-adv-x="445" />
<glyph unicode="&#x2122;" horiz-adv-x="1746" d="M33 1348v45h459v-45h-189v-504h-82v504h-188zM686 844v549h107l180 -289l180 289h102v-549h-73v497l-185 -294h-53l-184 294v-497h-74z" />
<glyph unicode="&#x25fc;" horiz-adv-x="1392" d="M0 0v1393h1393v-1393h-1393z" />
</font>
</defs>
</svg>
